<svg id="Capa_1" data-name="Capa 1" xmlns="http://www.w3.org/2000/svg" viewBox="0 0 166.13 154.23"><defs><style>.cls-1{font-size:24.6px;fill:#555556;font-family:Montserrat-Bold, Montserrat;font-weight:700;}.cls-2{letter-spacing:0.01em;}.cls-3{letter-spacing:0em;}.cls-4{font-size:15.07px;font-family:Montserrat-Light, Montserrat;letter-spacing:0.06em;}.cls-11,.cls-4{fill:#ef7853;}.cls-5{letter-spacing:0.04em;}.cls-6{letter-spacing:0.05em;}.cls-7{letter-spacing:0.05em;}.cls-8{letter-spacing:0.05em;}.cls-9{letter-spacing:0.04em;}.cls-10{letter-spacing:0.04em;}</style></defs><title>logo</title><g id="_Grupo_" data-name="&lt;Grupo&gt;"><text class="cls-1" transform="translate(0 129.88)"><tspan class="cls-2">BOO</tspan><tspan class="cls-3" x="61.08" y="0">K</tspan><tspan x="79.16" y="0">ST</tspan><tspan class="cls-2" x="110.05" y="0">ORE</tspan></text></g><g id="_Grupo_2" data-name="&lt;Grupo&gt;"><text class="cls-4" transform="translate(30.99 150.29)">e-<tspan class="cls-5" x="16.54" y="0">c</tspan><tspan class="cls-6" x="25.52" y="0">om</tspan><tspan class="cls-7" x="52.4" y="0">m</tspan><tspan class="cls-8" x="69.2" y="0">e</tspan><tspan class="cls-9" x="78.95" y="0">r</tspan><tspan class="cls-10" x="85.43" y="0">c</tspan><tspan class="cls-8" x="94.41" y="0">e</tspan></text></g><path id="_Trazado_compuesto_" data-name="&lt;Trazado compuesto&gt;" class="cls-11" d="M380.35,233.74a1.73,1.73,0,0,1,1.73-1.73H446.5a1.73,1.73,0,0,1,0,3.45H382.08A1.73,1.73,0,0,1,380.35,233.74Zm1.73,10.84H446.5a1.73,1.73,0,0,0,0-3.45H382.08a1.73,1.73,0,0,0,0,3.45ZM448.22,252a1.73,1.73,0,0,0-1.73-1.73H382.08a1.73,1.73,0,0,0,0,3.45H446.5A1.73,1.73,0,0,0,448.22,252Zm-76.3,7.45V226.2h-4.3a3.45,3.45,0,0,1,0-6.9h71.59a23.51,23.51,0,0,1,0,47H367.62a3.45,3.45,0,0,1,0-6.9Zm3.45,0h63.84a16.61,16.61,0,0,0,0-33.21H375.37Zm71.13,22H382.08a1.73,1.73,0,1,0,0,3.45H446.5a1.73,1.73,0,0,0,0-3.45Zm0,9.11H382.08a1.73,1.73,0,0,0,0,3.45H446.5a1.73,1.73,0,0,0,0-3.45Zm0,9.11H382.08a1.73,1.73,0,1,0,0,3.45H446.5a1.73,1.73,0,0,0,0-3.45Zm16.22-7.43a23.54,23.54,0,0,1-23.51,23.51H367.62a3.45,3.45,0,0,1,0-6.9h4.3V275.64h-4.3a3.45,3.45,0,0,1,0-6.9h71.59A23.54,23.54,0,0,1,462.72,292.24Zm-6.9,0a16.63,16.63,0,0,0-16.61-16.61H375.37v33.21h63.84A16.63,16.63,0,0,0,455.82,292.24Z" transform="translate(-330.38 -219.3)"/></svg>