<svg id="Capa_1" data-name="Capa 1" xmlns="http://www.w3.org/2000/svg" viewBox="0 0 405.65 116.99"><defs><style>.cls-1{font-size:38.77px;font-family:Montserrat-Bold, Montserrat;font-weight:700;letter-spacing:0.01em;}.cls-1,.cls-4,.cls-9{fill:#ef7756;}.cls-2{letter-spacing:0em;}.cls-3{letter-spacing:0.01em;}.cls-4{font-size:23.75px;font-family:Montserrat-Light, Montserrat;letter-spacing:0.06em;}.cls-5{letter-spacing:0.04em;}.cls-6{letter-spacing:0.05em;}.cls-7{letter-spacing:0.05em;}.cls-8{letter-spacing:0.04em;}</style></defs><title>logoBook</title><g id="_Grupo_" data-name="&lt;Grupo&gt;"><text class="cls-1" transform="translate(131.85 47.65)">BOOK <tspan class="cls-2" x="136.71" y="0">ST</tspan><tspan class="cls-3" x="185.4" y="0">ORE</tspan></text></g><g id="_Grupo_2" data-name="&lt;Grupo&gt;"><text class="cls-4" transform="translate(186.97 79.82)">e-<tspan class="cls-5" x="26.07" y="0">c</tspan><tspan class="cls-6" x="40.23" y="0">om</tspan><tspan class="cls-7" x="82.59" y="0">m</tspan><tspan class="cls-6" x="109.07" y="0">e</tspan><tspan class="cls-8" x="124.44" y="0">r</tspan><tspan class="cls-5" x="134.65" y="0">c</tspan><tspan class="cls-6" x="148.8" y="0">e</tspan></text></g><path id="_Trazado_compuesto_" data-name="&lt;Trazado compuesto&gt;" class="cls-9" d="M239.8,143.26a3.45,3.45,0,0,0-3.33-.2L226,148v-8a1.73,1.73,0,0,0-2.78-1.36l-16.3,12.66V137.85a1.73,1.73,0,0,0-3.17-1l-19.89,30.15V137.14a1.73,1.73,0,0,0-3.45,0V167l-19.8-30.13a1.73,1.73,0,0,0-3.17.95v13.58L141.08,138.7a1.73,1.73,0,0,0-2.78,1.36v8l-10.44-5a3.45,3.45,0,0,0-4.94,3.11v76.15a3.45,3.45,0,0,0,2,3.11l55.8,26.62.05,0,.13.05.28.1.15,0,.3.06.14,0,.4,0h0a3.43,3.43,0,0,0,.44,0l.11,0,.33-.07.13,0,.3-.11.12-.05,0,0,55.8-26.62a3.45,3.45,0,0,0,2-3.11V146.18A3.45,3.45,0,0,0,239.8,143.26Zm-33.52,13.06a1.71,1.71,0,0,0,.3-.3l16-12.44v6.11l-20.18,9.63Zm-2.78-12.72V154l-14.13,11Zm-42.58,0L175,165.06l-14.09-10.95Zm-19.17,0,16.38,12.73h0l4,3.09-20.37-9.72Zm37,99.89-48.89-23.33v-68.5L178.71,175Zm55.8-23.33-48.89,23.33V175l48.89-23.33Z" transform="translate(-122.91 -135.41)"/></svg>